<?xml version="1.0" standalone="no"?>
<!DOCTYPE svg PUBLIC "-//W3C//DTD SVG 20010904//EN"
 "http://www.w3.org/TR/2001/REC-SVG-20010904/DTD/svg10.dtd">
<svg version="1.0" xmlns="http://www.w3.org/2000/svg"
 width="226.000000pt" height="229.000000pt" viewBox="0 0 226.000000 229.000000"
 preserveAspectRatio="xMidYMid meet">

<g transform="translate(0.000000,229.000000) scale(0.100000,-0.100000)"
fill="#000000" stroke="none">
<path d="M1505 2280 c-78 -5 -165 -38 -165 -61 0 -5 -6 -9 -14 -9 -7 0 -25 -9
-38 -20 -14 -10 -29 -16 -33 -12 -5 4 -5 1 -1 -6 4 -7 1 -15 -8 -18 -8 -3 -17
-12 -20 -20 -5 -12 0 -11 24 3 17 9 30 21 30 25 0 4 10 8 22 8 20 0 21 -1 3
-20 -15 -16 -15 -20 -3 -20 8 0 17 3 21 6 10 10 97 11 97 1 0 -5 16 -6 36 -3
45 9 181 -11 216 -32 24 -14 31 -14 55 -2 15 8 36 22 45 31 10 10 26 15 38 12
20 -5 20 -7 4 -24 -9 -11 -14 -19 -10 -19 4 0 18 12 32 28 19 20 24 22 17 7
-7 -18 -10 -70 -12 -240 -1 -27 2 -87 7 -131 5 -45 6 -107 2 -138 -6 -60 1
-76 35 -77 19 0 19 -1 -2 -16 -13 -8 -23 -22 -23 -30 0 -12 3 -12 21 1 11 8
27 24 35 35 14 19 13 23 -11 47 -37 37 -24 41 16 5 18 -17 36 -31 39 -31 3 0
31 16 63 36 l57 36 0 121 c1 148 -1 466 -2 487 -2 37 -19 41 -137 40 -64 -1
-127 -1 -141 -1 -14 1 -62 -2 -108 -5 -45 -3 -88 -2 -95 2 -6 5 -48 7 -92 4z
m545 -14 c0 -3 -4 -8 -10 -11 -5 -3 -10 -1 -10 4 0 6 5 11 10 11 6 0 10 -2 10
-4z m-30 -20 c0 -11 -19 -15 -25 -6 -3 5 1 10 9 10 9 0 16 -2 16 -4z m0 -46
c0 -5 -4 -10 -10 -10 -5 0 -10 5 -10 10 0 6 5 10 10 10 6 0 10 -4 10 -10z
m-120 -35 c-7 -8 -17 -15 -23 -15 -6 0 -2 8 9 19 22 21 33 19 14 -4z m-20 -65
c0 -5 -5 -10 -11 -10 -5 0 -7 5 -4 10 3 6 8 10 11 10 2 0 4 -4 4 -10z m0 -450
c0 -11 -4 -20 -10 -20 -5 0 -10 9 -10 20 0 11 5 20 10 20 6 0 10 -9 10 -20z
m95 -50 c3 -5 1 -10 -4 -10 -6 0 -11 5 -11 10 0 6 2 10 4 10 3 0 8 -4 11 -10z
m-95 -20 c0 -5 -4 -10 -10 -10 -5 0 -10 5 -10 10 0 6 5 10 10 10 6 0 10 -4 10
-10z"/>
<path d="M695 2080 c-226 -5 -244 -9 -299 -63 -22 -22 -31 -25 -37 -15 -8 11
-13 5 -11 -13 0 -3 -8 -11 -20 -18 -16 -10 -19 -10 -12 1 4 7 -5 2 -21 -11
-30 -22 -54 -57 -55 -76 0 -5 9 4 19 22 20 31 20 31 86 26 42 -3 70 -1 79 6
10 8 16 9 21 1 4 -7 29 -8 70 -4 59 6 65 5 90 -20 32 -32 40 -32 68 0 19 22
30 25 85 26 39 1 58 4 50 9 -8 6 -1 7 18 3 18 -3 42 -1 54 6 20 11 22 10 16
-5 -5 -13 4 -11 41 11 66 37 163 104 163 110 0 3 -36 4 -80 3 -44 -1 -83 1
-87 5 -3 3 -11 5 -17 4 -6 -1 -105 -5 -221 -8z m350 -30 c-3 -5 -14 -10 -23
-10 -15 0 -15 2 -2 10 20 13 33 13 25 0z m-65 -24 c0 -2 -8 -10 -17 -17 -16
-13 -17 -12 -4 4 13 16 21 21 21 13z m-525 -16 c3 -5 1 -10 -4 -10 -6 0 -11 5
-11 10 0 6 2 10 4 10 3 0 8 -4 11 -10z m45 -50 c0 -5 -2 -10 -4 -10 -3 0 -8 5
-11 10 -3 6 -1 10 4 10 6 0 11 -4 11 -10z m80 0 c0 -5 -5 -10 -11 -10 -5 0 -7
5 -4 10 3 6 8 10 11 10 2 0 4 -4 4 -10z m160 0 c0 -5 -2 -10 -4 -10 -3 0 -8 5
-11 10 -3 6 -1 10 4 10 6 0 11 -4 11 -10z"/>
<path d="M1605 1900 c-49 -4 -164 -5 -253 -3 -109 3 -168 0 -177 -7 -9 -8 -15
-8 -20 0 -3 5 -18 10 -33 10 -21 0 -24 -3 -12 -10 12 -8 12 -10 -2 -15 -10 -4
-22 -4 -27 -1 -6 4 -27 -9 -48 -29 -20 -19 -46 -35 -58 -35 -11 0 -31 -9 -45
-20 l-25 -20 123 1 c78 1 128 -3 135 -10 8 -8 -20 -11 -104 -13 -62 -1 -131 0
-151 1 l-38 2 0 -123 c0 -123 0 -125 28 -151 15 -15 33 -27 38 -27 6 0 30 18
53 40 61 58 74 49 16 -10 -46 -47 -85 -65 -85 -39 0 8 -5 7 -16 -2 -10 -8 -13
-21 -9 -37 4 -17 0 -31 -16 -48 -11 -12 -19 -27 -15 -32 3 -5 49 34 103 87 54
53 112 107 127 121 l29 25 -16 -24 c-9 -13 -65 -74 -125 -135 -97 -98 -140
-156 -116 -156 14 0 94 83 94 97 0 7 6 13 13 13 6 1 27 14 46 30 19 16 37 27
40 24 3 -2 -41 -51 -97 -107 l-101 -102 18 -24 c18 -24 20 -24 43 -9 14 9 58
53 98 97 72 80 109 107 74 54 -10 -16 -23 -38 -29 -50 -7 -13 -16 -19 -20 -15
-5 4 -5 1 -1 -5 4 -8 2 -13 -6 -13 -7 0 -33 -22 -57 -50 -24 -27 -51 -50 -60
-50 -13 -1 -13 -3 3 -11 16 -10 28 -1 87 57 38 37 72 64 76 60 4 -4 -18 -32
-50 -63 -31 -30 -57 -57 -57 -59 0 -28 147 106 165 151 8 19 9 18 13 -5 3 -19
-8 -36 -57 -83 -34 -32 -61 -60 -61 -61 0 -2 97 0 127 3 7 1 12 6 10 12 -1 6
23 31 53 56 38 32 44 35 18 10 l-37 -36 36 -23 c33 -19 50 -22 157 -22 l121
-1 60 42 c87 62 155 154 127 172 -9 5 -7 12 7 25 15 14 18 27 15 64 -2 26 -1
42 3 35 5 -6 7 88 7 210 l-2 220 -23 11 c-16 8 -56 9 -114 6z m-330 -20 c-3
-5 -13 -10 -21 -10 -8 0 -14 -8 -14 -17 0 -13 -3 -14 -12 -5 -9 9 -8 15 8 27
22 16 48 20 39 5z m445 1 c0 -10 -24 -21 -48 -21 -13 0 -12 3 4 15 21 16 44
19 44 6z m-320 -22 c0 -6 -4 -7 -10 -4 -5 3 -10 11 -10 16 0 6 5 7 10 4 6 -3
10 -11 10 -16z m-325 -9 c-5 -14 -2 -20 9 -20 9 0 16 -4 16 -10 0 -14 -19 -12
-35 3 -9 9 -10 19 -3 30 13 23 21 21 13 -3z m265 -10 c0 -5 -5 -10 -11 -10 -5
0 -7 5 -4 10 3 6 8 10 11 10 2 0 4 -4 4 -10z m235 -20 c-3 -5 -11 -10 -16 -10
-6 0 -7 5 -4 10 3 6 11 10 16 10 6 0 7 -4 4 -10z m-415 -20 c0 -5 -4 -10 -10
-10 -5 0 -10 5 -10 10 0 6 5 10 10 10 6 0 10 -4 10 -10z m373 -27 c-10 -4 -13
-78 -13 -324 0 -206 -4 -319 -10 -319 -5 0 -10 3 -10 8 -2 43 -2 189 0 197 1
6 2 14 1 19 -1 5 -2 96 -2 203 l0 195 -42 -2 c-81 -5 -112 -1 -99 12 7 7 40
10 86 9 46 -1 77 2 81 9 4 6 10 8 14 4 3 -4 0 -9 -6 -11z m-213 -14 c0 -11 -7
-11 -39 -2 -23 6 -23 7 -5 13 21 8 44 2 44 -11z m-220 -59 c0 -5 -5 -10 -11
-10 -5 0 -7 5 -4 10 3 6 8 10 11 10 2 0 4 -4 4 -10z m-187 -34 c-10 -13 -22
-21 -27 -18 -5 3 1 13 13 24 31 24 35 23 14 -6z m87 14 c0 -5 -4 -10 -10 -10
-5 0 -10 5 -10 10 0 6 5 10 10 10 6 0 10 -4 10 -10z m-65 -64 c-22 -21 -35
-42 -33 -53 4 -20 51 -48 56 -33 2 6 13 15 24 21 16 9 19 8 13 -3 -14 -23 -38
-48 -47 -48 -14 0 -68 56 -68 70 0 15 81 93 88 85 2 -2 -12 -20 -33 -39z m125
8 c0 -8 -4 -12 -10 -9 -5 3 -10 10 -10 16 0 5 5 9 10 9 6 0 10 -7 10 -16z
m-70 -18 c0 -2 -7 -7 -16 -10 -8 -3 -12 -2 -9 4 6 10 25 14 25 6z m430 -80 c0
-2 -8 -10 -17 -17 -16 -13 -17 -12 -4 4 13 16 21 21 21 13z m220 -6 c0 -5 -2
-10 -4 -10 -3 0 -8 5 -11 10 -3 6 -1 10 4 10 6 0 11 -4 11 -10z m80 0 c0 -5
-4 -10 -10 -10 -5 0 -10 5 -10 10 0 6 5 10 10 10 6 0 10 -4 10 -10z m-671
-196 c-65 -66 -81 -53 -18 14 33 35 55 52 57 43 2 -7 -15 -33 -39 -57z m-49
56 c0 -5 -4 -10 -10 -10 -5 0 -10 5 -10 10 0 6 5 10 10 10 6 0 10 -4 10 -10z
m699 -75 c3 -17 2 -17 -13 -3 -19 20 -21 31 -3 26 6 -3 14 -13 16 -23z m-549
6 c0 -38 -28 -53 -49 -27 -10 11 -8 17 6 25 22 13 43 14 43 2z m84 -44 c7 -5
5 -11 -6 -18 -10 -5 -18 -15 -18 -20 0 -6 -17 -30 -37 -55 -26 -30 -45 -44
-62 -44 l-25 0 29 30 c15 16 32 27 37 24 5 -3 7 -1 6 4 -2 5 13 24 32 41 31
28 33 32 18 42 -10 5 -18 20 -18 32 0 21 0 21 17 -3 9 -14 22 -28 27 -33z
m366 -7 c0 -5 -4 -10 -10 -10 -5 0 -10 5 -10 10 0 6 5 10 10 10 6 0 10 -4 10
-10z"/>
<path d="M768 1834 c-4 -3 -128 -5 -276 -5 -256 0 -270 -1 -287 -19 -10 -11
-22 -20 -28 -20 -18 0 -137 -83 -137 -96 0 -8 -9 -14 -20 -14 -19 0 -20 -7
-18 -157 1 -142 3 -160 21 -180 19 -22 19 -22 -2 -16 -20 5 -21 4 -15 -133 7
-136 18 -191 34 -164 5 8 28 11 71 9 35 -2 79 0 98 5 23 6 36 4 41 -4 5 -7 20
-9 44 -5 l37 7 -20 22 c-35 37 -24 53 12 18 48 -47 55 -39 12 14 -20 25 -34
48 -30 52 4 4 10 2 12 -5 4 -10 7 -10 17 0 8 6 11 17 9 24 -3 7 2 20 11 28 14
14 18 14 47 -1 18 -9 60 -46 95 -81 34 -36 66 -64 73 -62 6 2 -28 43 -76 92
-59 60 -89 84 -94 75 -4 -7 -11 -9 -15 -6 -3 4 1 14 10 24 16 15 24 9 119 -85
57 -56 109 -101 115 -101 7 0 12 16 12 40 0 37 -8 48 -106 152 -58 62 -118
123 -132 135 -15 12 -23 25 -20 28 10 10 234 -212 248 -245 16 -40 27 -31 35
31 6 46 5 53 -19 78 -26 28 -33 55 -17 66 5 3 12 -5 14 -17 3 -13 3 -4 2 20
-3 54 -8 59 -36 33 -13 -12 -28 -21 -35 -21 -12 0 -104 94 -104 106 0 9 37
-23 68 -58 13 -16 29 -28 36 -28 30 0 81 84 70 115 -5 11 -14 6 -39 -20 -18
-19 -37 -35 -44 -35 -15 0 -60 40 -73 65 -9 17 -6 16 18 -5 16 -14 30 -28 32
-32 8 -18 37 -6 66 26 29 31 31 39 34 120 3 89 0 94 -42 87 -5 -1 -72 -2 -150
-3 -77 0 -148 -4 -158 -9 -14 -8 -28 6 -28 26 0 2 87 5 194 7 110 2 192 -1
189 -6 -3 -5 -2 -7 4 -5 22 9 192 123 189 127 -2 2 -22 -8 -45 -22 -44 -28
-70 -36 -33 -10 12 8 20 19 17 24 -3 4 1 11 7 13 7 3 8 6 2 6 -6 1 -13 -2 -16
-5z m-108 -44 c0 -5 -4 -10 -10 -10 -5 0 -10 5 -10 10 0 6 5 10 10 10 6 0 10
-4 10 -10z m-225 -10 c3 -5 1 -10 -4 -10 -6 0 -11 5 -11 10 0 6 2 10 4 10 3 0
8 -4 11 -10z m-337 -82 c-3 -7 -13 -15 -24 -17 -16 -3 -17 -1 -5 13 16 19 34
21 29 4z m52 8 c0 -2 -7 -9 -15 -16 -12 -10 -15 -10 -15 4 0 9 7 16 15 16 8 0
15 -2 15 -4z m424 -92 c3 -8 2 -12 -4 -9 -6 3 -10 10 -10 16 0 14 7 11 14 -7z
m-390 -40 c7 -19 2 -18 -19 6 -16 17 -16 20 -3 15 9 -4 19 -13 22 -21z m-122
-4 c-12 -11 -24 -20 -28 -20 -4 0 1 9 11 20 10 11 23 20 28 20 6 0 1 -9 -11
-20z m553 9 c11 -17 -1 -21 -15 -4 -8 9 -8 15 -2 15 6 0 14 -5 17 -11z m3 -64
c-3 -4 -17 5 -31 19 -32 32 -23 42 11 11 14 -13 23 -27 20 -30z m-60 17 c2 -7
-2 -10 -12 -6 -9 3 -16 11 -16 16 0 13 23 5 28 -10z m-128 -33 c0 -5 -7 -9
-15 -9 -15 0 -20 12 -9 23 8 8 24 -1 24 -14z m-175 -59 c3 -5 -1 -10 -9 -10
-9 0 -16 5 -16 10 0 6 4 10 9 10 6 0 13 -4 16 -10z m237 -65 c9 -13 4 -17 -14
-10 -8 3 -22 20 -33 38 l-18 32 29 -25 c16 -14 32 -29 36 -35z m-192 6 c0 -5
-7 -11 -14 -14 -10 -4 -13 -1 -9 9 6 15 23 19 23 5z m236 -43 c12 -13 37 -36
53 -53 17 -16 31 -39 31 -50 0 -16 -12 -8 -55 36 -30 31 -62 60 -72 63 -15 6
-15 8 -3 16 20 13 20 13 46 -12z m-396 -39 c0 -5 -9 -9 -20 -9 -22 0 -27 16
-7 23 15 5 27 -1 27 -14z m190 17 c0 -2 -8 -10 -17 -17 -16 -13 -17 -12 -4 4
13 16 21 21 21 13z m55 -31 c-16 -14 -43 -37 -60 -53 -16 -15 -23 -18 -15 -7
21 29 83 84 95 85 6 0 -3 -11 -20 -25z m99 -24 c29 -28 44 -51 38 -55 -10 -6
-92 72 -100 95 -8 21 16 5 62 -40z m-344 -1 c0 -5 -4 -10 -10 -10 -5 0 -10 5
-10 10 0 6 5 10 10 10 6 0 10 -4 10 -10z m-60 -122 c0 -15 -15 -8 -28 12 -12
19 -11 20 8 8 11 -7 20 -16 20 -20z"/>
<path d="M2010 1411 c-14 -17 -52 -41 -64 -41 -3 0 -6 7 -6 15 0 8 -9 15 -20
15 -21 0 -40 -27 -40 -58 0 -11 -6 -25 -14 -32 -8 -6 -14 -17 -12 -23 1 -7 1
-9 -1 -4 -9 14 -22 6 -42 -27 -25 -39 -28 -113 -6 -142 23 -30 19 -120 -7
-157 -12 -18 -15 -26 -8 -19 8 6 18 12 22 12 12 0 10 -118 -2 -125 -5 -3 -10
-13 -10 -21 0 -8 5 -12 10 -9 6 4 10 -15 10 -49 0 -75 6 -89 33 -74 12 6 35
22 50 35 16 13 32 21 37 18 5 -3 18 6 29 21 11 14 25 23 30 19 16 -9 53 72 47
106 -2 16 0 31 5 34 5 4 1 17 -8 31 -16 26 -16 26 -28 5 -6 -12 -22 -29 -35
-38 -24 -17 -25 -17 -10 2 8 11 21 26 28 33 39 42 46 75 50 250 3 135 1 176
-9 189 -8 9 -13 24 -11 35 4 23 1 23 -18 -1z m22 -113 c-7 -7 -12 -8 -12 -2 0
6 3 14 7 17 3 4 9 5 12 2 2 -3 -1 -11 -7 -17z m-152 -45 c-1 -20 -28 -55 -34
-45 -4 6 -1 20 6 32 13 20 28 27 28 13z m92 -15 c-7 -7 -12 -8 -12 -2 0 14 12
26 19 19 2 -3 -1 -11 -7 -17z m-92 -67 c0 -5 -7 -14 -15 -21 -12 -10 -15 -10
-15 2 0 8 3 18 7 21 9 10 23 9 23 -2z m140 -57 c0 -8 -4 -12 -10 -9 -5 3 -10
10 -10 16 0 5 5 9 10 9 6 0 10 -7 10 -16z m-159 -21 c-12 -20 -14 -14 -5 12 4
9 9 14 11 11 3 -2 0 -13 -6 -23z"/>
<path d="M471 1080 c17 -26 39 -38 39 -22 0 5 -12 18 -27 28 l-28 18 16 -24z"/>
<path d="M430 1060 c0 -5 4 -10 9 -10 6 0 13 5 16 10 3 6 -1 10 -9 10 -9 0
-16 -4 -16 -10z"/>
<path d="M1726 983 c-8 -24 -26 -32 -26 -12 0 12 -96 -39 -150 -81 -32 -24
-42 -26 -110 -24 -50 2 -77 -1 -82 -9 -6 -9 -10 -9 -20 1 -19 19 -72 14 -104
-10 -16 -12 -31 -23 -33 -25 -2 -1 2 -9 9 -18 10 -12 9 -15 -6 -15 -16 0 -16
-3 6 -20 14 -10 21 -22 17 -26 -8 -8 -57 34 -57 48 0 5 4 7 9 3 5 -3 12 -1 16
5 3 5 0 10 -7 10 -7 0 -1 12 15 25 15 13 27 27 27 30 0 3 -16 5 -35 5 -19 0
-35 -5 -35 -11 0 -6 -9 -8 -20 -4 -13 4 -20 2 -20 -6 0 -8 -6 -6 -18 4 -17 16
-42 23 -42 12 0 -2 25 -28 56 -57 44 -42 125 -138 88 -105 -5 5 -44 41 -87 80
-43 40 -84 72 -90 72 -7 0 -18 4 -25 9 -28 17 -18 -1 25 -48 35 -39 46 -47 53
-35 7 11 12 11 22 1 9 -9 9 -12 -5 -12 -25 0 -21 -18 6 -22 12 -2 21 -9 19
-17 -2 -8 10 -28 25 -45 25 -28 26 -29 3 -11 -14 11 -56 50 -93 86 -37 37 -67
59 -65 50 1 -9 -5 -27 -14 -40 -17 -23 -16 -25 2 -38 11 -8 20 -20 20 -27 0
-19 60 -65 76 -59 8 3 14 0 14 -6 0 -6 -6 -11 -14 -11 -8 0 -25 -13 -39 -29
-14 -17 -27 -28 -30 -25 -3 3 6 16 20 30 25 25 25 26 7 43 -11 9 -27 20 -36
24 -10 3 -18 12 -18 19 0 18 -34 38 -50 28 -9 -5 -1 -19 29 -49 47 -47 33 -56
-19 -11 -31 27 -50 37 -50 26 0 -1 22 -27 50 -56 52 -56 64 -78 30 -60 -11 6
-20 15 -20 20 0 6 -54 40 -64 40 -1 0 -1 -23 -1 -51 0 -33 5 -55 15 -63 8 -6
26 -25 40 -41 24 -29 24 -29 -11 3 -39 36 -49 39 -49 17 0 -8 -4 -15 -9 -15
-5 0 -4 -16 1 -37 6 -21 10 -64 9 -96 -1 -32 3 -73 9 -92 10 -31 14 -33 44
-28 20 3 36 1 41 -7 5 -8 12 -7 25 5 13 12 26 14 42 9 21 -7 109 -7 248 1 30
1 63 -1 73 -6 13 -7 17 -6 17 6 0 12 4 14 20 5 11 -6 42 -8 75 -4 46 6 72 18
151 70 52 35 99 64 104 64 14 0 42 72 31 79 -6 4 -10 75 -11 161 -2 198 -7
245 -26 229 -23 -19 -29 -1 -7 18 12 10 24 33 27 52 l6 34 -21 -27 c-11 -14
-25 -23 -31 -20 -7 4 -4 10 6 16 9 5 16 15 16 23 0 7 5 15 11 17 6 2 9 15 7
28 l-4 25 -8 -22z m-46 -48 c0 -8 -4 -15 -10 -15 -5 0 -10 7 -10 15 0 8 5 15
10 15 6 0 10 -7 10 -15z m-7 -64 c-9 -2 -24 7 -34 20 -29 38 -22 42 16 12 27
-22 32 -29 18 -32z m-378 -51 c-24 -26 -26 -32 -15 -47 13 -17 13 -17 -4 -1
-18 16 -18 18 5 47 13 16 28 30 33 30 6 1 -3 -12 -19 -29z m361 -7 c-10 -10
-19 5 -10 18 6 11 8 11 12 0 2 -7 1 -15 -2 -18z m72 -15 c-6 -18 -28 -21 -28
-4 0 9 7 16 16 16 9 0 14 -5 12 -12z m-205 -88 c1 -42 -2 -64 -10 -67 -10 -3
-12 15 -10 71 2 89 18 86 20 -4z m-123 50 c0 -5 -4 -10 -10 -10 -5 0 -10 5
-10 10 0 6 5 10 10 10 6 0 10 -4 10 -10z m-355 -24 c8 -7 11 -16 8 -20 -4 -3
1 -6 9 -6 9 0 22 -8 29 -17 10 -11 10 -14 2 -9 -7 4 -13 3 -13 -3 0 -5 -13 4
-30 21 -28 27 -38 48 -24 48 3 0 12 -6 19 -14z m223 -25 c3 -8 -1 -12 -9 -9
-7 2 -15 10 -17 17 -3 8 1 12 9 9 7 -2 15 -10 17 -17z m147 -1 c11 -13 14 -20
6 -20 -13 0 -41 24 -41 34 0 12 18 5 35 -14z m-25 -31 c0 -5 -7 -9 -15 -9 -8
0 -15 7 -15 15 0 9 6 12 15 9 8 -4 15 -10 15 -15z m290 -19 c0 -5 -4 -10 -10
-10 -5 0 -10 5 -10 10 0 6 5 10 10 10 6 0 10 -4 10 -10z m-460 -20 c0 -5 -4
-10 -10 -10 -5 0 -10 5 -10 10 0 6 5 10 10 10 6 0 10 -4 10 -10z m100 0 c0 -5
-4 -10 -10 -10 -5 0 -10 5 -10 10 0 6 5 10 10 10 6 0 10 -4 10 -10z m-180 -14
c0 -2 -7 -9 -15 -16 -13 -11 -14 -10 -9 4 5 14 24 23 24 12z m-212 -72 c-10
-10 -28 6 -28 24 0 15 1 15 17 -1 9 -9 14 -19 11 -23z m232 -14 c-6 -11 -15
-20 -20 -20 -14 0 -12 6 6 24 21 22 27 20 14 -4z m260 14 c0 -8 -19 -13 -24
-6 -3 5 1 9 9 9 8 0 15 -2 15 -3z m-400 -14 c0 -5 -4 -10 -10 -10 -5 0 -10 5
-10 10 0 6 5 10 10 10 6 0 10 -4 10 -10z m-39 -23 c-1 -12 -15 -9 -19 4 -3 6
1 10 8 8 6 -3 11 -8 11 -12z m431 -25 c-7 -2 -9 -9 -6 -14 4 -7 2 -8 -4 -4 -6
4 -9 13 -6 21 4 8 11 12 17 8 8 -5 7 -8 -1 -11z m-192 -12 c0 -5 -4 -10 -10
-10 -5 0 -10 5 -10 10 0 6 5 10 10 10 6 0 10 -4 10 -10z m302 -12 c6 -16 -1
-38 -12 -38 -4 0 -7 11 -6 25 1 27 11 33 18 13z m-362 -48 c0 -5 -4 -10 -10
-10 -5 0 -10 5 -10 10 0 6 5 10 10 10 6 0 10 -4 10 -10z m280 -6 c0 -8 -4 -12
-10 -9 -5 3 -10 10 -10 16 0 5 5 9 10 9 6 0 10 -7 10 -16z m120 -14 c0 -5 -5
-10 -11 -10 -5 0 -7 5 -4 10 3 6 8 10 11 10 2 0 4 -4 4 -10z m-282 -19 c3 -8
-1 -12 -9 -9 -7 2 -15 10 -17 17 -3 8 1 12 9 9 7 -2 15 -10 17 -17z m-158 -1
c0 -5 -5 -10 -11 -10 -5 0 -7 5 -4 10 3 6 8 10 11 10 2 0 4 -4 4 -10z m220 -5
c11 -13 10 -14 -4 -9 -9 3 -16 10 -16 15 0 13 6 11 20 -6z m120 -21 c0 -14 -3
-14 -15 -4 -8 7 -15 14 -15 16 0 2 7 4 15 4 8 0 15 -7 15 -16z m-135 -23 c-6
-5 -25 10 -25 20 0 5 6 4 14 -3 8 -7 12 -15 11 -17z m-210 9 c3 -5 1 -10 -4
-10 -6 0 -11 5 -11 10 0 6 2 10 4 10 3 0 8 -4 11 -10z m421 -62 c-3 -13 -5
-25 -5 -28 -2 -9 -21 25 -21 38 0 6 7 12 15 12 10 0 14 -7 11 -22z m-208 0
c-3 -7 -11 -13 -18 -13 -7 0 -15 6 -17 13 -3 7 4 12 17 12 13 0 20 -5 18 -12z
m112 -3 c-7 -8 -17 -15 -23 -15 -6 0 -2 7 9 15 25 19 30 19 14 0z m-205 -15
c-3 -5 -12 -10 -18 -10 -7 0 -6 4 3 10 19 12 23 12 15 0z m125 0 c0 -5 -7 -10
-15 -10 -8 0 -15 5 -15 10 0 6 7 10 15 10 8 0 15 -4 15 -10z"/>
<path d="M229 863 c-13 -16 -12 -17 4 -4 16 13 21 21 13 21 -2 0 -10 -8 -17
-17z"/>
<path d="M119 793 c-13 -16 -12 -17 4 -4 16 13 21 21 13 21 -2 0 -10 -8 -17
-17z"/>
<path d="M219 785 c-39 -21 -102 -33 -127 -24 -23 9 -21 12 -37 -64 -3 -17 3
-31 20 -47 14 -13 21 -28 17 -34 -25 -34 -32 -92 -30 -253 0 -95 4 -170 8
-168 4 3 13 -2 20 -10 11 -13 10 -14 -4 -9 -11 4 -16 1 -16 -10 0 -9 5 -16 11
-16 7 0 17 -6 23 -14 13 -17 103 -29 111 -16 7 11 78 14 87 4 5 -4 236 -8 266
-4 4 1 -2 6 -13 11 -15 6 -11 7 15 3 19 -4 40 -10 46 -15 6 -5 14 -5 18 -1 4
4 20 7 34 7 l27 0 2 137 c1 76 -2 140 -6 142 -4 3 -19 -6 -31 -19 -13 -14 -28
-25 -34 -25 -6 0 9 19 32 43 56 57 54 81 -3 28 -24 -22 -47 -41 -50 -41 -10 0
31 54 64 83 19 16 31 37 31 52 0 14 -2 25 -4 25 -2 0 -26 -22 -53 -50 l-49
-50 -39 40 c-45 46 -51 34 73 154 57 56 72 76 70 96 -3 21 -8 25 -32 23 -48
-4 -60 -11 -47 -27 14 -16 -2 -32 -20 -21 -6 4 -41 -22 -77 -59 -85 -83 -156
-146 -160 -141 -2 1 50 58 116 125 127 131 147 174 30 65 -40 -37 -85 -73
-100 -81 -28 -14 -28 -14 -16 6 7 11 21 23 31 26 9 3 14 10 11 16 -4 6 -3 9 2
7 5 -2 32 19 59 47 47 48 48 51 25 51 -14 0 -43 3 -65 7 l-40 6 38 -11 c51
-15 42 -35 -14 -31 -61 3 -81 13 -49 22 19 6 13 7 -21 6 -33 -1 -45 -5 -42
-13 3 -7 -2 -13 -11 -13 -9 0 -16 5 -16 10 0 6 -16 10 -36 10 -31 0 -35 2 -24
15 15 18 12 18 -21 0z m164 -49 c10 -8 19 -23 20 -34 1 -25 -62 -100 -85 -101
-14 -1 -12 4 7 24 14 13 25 29 25 35 0 5 6 10 14 10 8 0 17 7 20 16 7 19 -10
44 -30 44 -8 0 -14 5 -14 10 0 14 22 12 43 -4z m-253 -36 c-19 -13 -30 -13
-30 0 0 6 10 10 23 10 18 0 19 -2 7 -10z m438 -69 c10 -6 8 -12 -10 -23 -13
-9 -36 -27 -51 -42 -15 -14 -32 -26 -38 -26 -20 0 -7 -29 24 -55 34 -29 102
-105 94 -105 -3 0 -37 32 -77 70 -79 79 -79 70 -5 146 45 47 45 47 63 35z
m-268 -211 c0 -5 -5 -10 -11 -10 -5 0 -7 5 -4 10 3 6 8 10 11 10 2 0 4 -4 4
-10z m303 -97 c-3 -7 -11 -13 -18 -13 -7 0 -17 6 -23 13 -8 9 -4 12 18 12 18
0 26 -4 23 -12z m-113 -23 c0 -5 -7 -10 -15 -10 -8 0 -15 5 -15 10 0 6 7 10
15 10 8 0 15 -4 15 -10z m-390 -29 c0 -5 -7 -14 -15 -21 -16 -14 -18 -10 -9
14 6 17 24 22 24 7z m560 -25 c0 -3 -4 -8 -10 -11 -5 -3 -10 -1 -10 4 0 6 5
11 10 11 6 0 10 -2 10 -4z m-474 -103 c-8 -8 -56 25 -56 38 0 6 14 1 31 -11
16 -12 28 -25 25 -27z m309 37 c-3 -5 -11 -10 -16 -10 -6 0 -7 5 -4 10 3 6 11
10 16 10 6 0 7 -4 4 -10z"/>
<path d="M658 653 c-21 -22 -38 -44 -38 -51 0 -7 -4 -12 -9 -12 -11 0 -71 -49
-71 -58 0 -4 11 -20 24 -35 l25 -29 55 59 c69 72 74 105 6 38 -66 -65 -65 -40
1 30 35 37 50 60 47 75 -3 19 -6 18 -40 -17z"/>
<path d="M849 223 c-13 -16 -12 -17 4 -4 16 13 21 21 13 21 -2 0 -10 -8 -17
-17z"/>
<path d="M786 185 c-11 -8 -17 -17 -14 -20 2 -3 13 4 23 15 21 23 18 25 -9 5z"/>
</g>
</svg>
