<?xml version="1.0" standalone="no"?>
<!DOCTYPE svg PUBLIC "-//W3C//DTD SVG 20010904//EN"
 "http://www.w3.org/TR/2001/REC-SVG-20010904/DTD/svg10.dtd">
<svg version="1.0" xmlns="http://www.w3.org/2000/svg"
 width="840.000000pt" height="1001.000000pt" viewBox="0 0 840.000000 1001.000000"
 preserveAspectRatio="xMidYMid meet">

<g transform="translate(0.000000,1001.000000) scale(0.100000,-0.100000)"
fill="#000000" stroke="none">
<path d="M1005 9599 c-380 -55 -682 -336 -783 -727 -16 -63 -17 -265 -17
-3292 0 -3047 1 -3229 18 -3294 26 -101 72 -211 125 -296 51 -82 180 -218 254
-268 81 -55 207 -113 307 -140 l96 -27 2658 -3 c2536 -2 2658 -1 2653 15 -74
252 -226 797 -224 805 2 5 114 -93 248 -218 700 -650 925 -855 1370 -1247
l485 -429 3 4114 c2 2903 -1 4138 -8 4198 -15 113 -66 261 -126 362 -66 111
-211 256 -322 322 -97 58 -247 111 -355 125 -97 13 -6291 13 -6382 0z m2515
-2144 c13 -14 22 -27 19 -29 -2 -1 -60 -21 -129 -43 -266 -85 -533 -204 -747
-331 -124 -74 -288 -190 -280 -198 2 -3 56 20 118 51 515 254 1071 377 1714
379 357 1 561 -22 885 -100 266 -63 491 -143 760 -270 118 -55 131 -60 100
-33 -71 62 -279 191 -440 273 -170 86 -313 146 -505 212 -60 20 -112 39 -114
40 -2 2 9 20 24 40 l28 36 86 -7 c264 -21 525 -97 806 -235 152 -75 376 -216
401 -254 28 -44 156 -329 219 -491 254 -648 396 -1300 425 -1950 l9 -200 -37
-55 c-52 -77 -213 -234 -311 -304 -270 -193 -587 -305 -946 -335 -55 -4 -103
-6 -107 -4 -10 5 -301 364 -297 367 2 1 42 15 89 30 233 77 439 203 608 372
61 62 112 117 112 122 0 6 -37 -12 -82 -40 -195 -117 -508 -252 -761 -327
-153 -45 -390 -94 -537 -111 -276 -31 -631 -22 -905 25 -414 70 -863 230
-1158 412 -49 30 -91 52 -93 50 -8 -8 84 -113 153 -176 140 -127 354 -253 540
-317 46 -16 83 -32 83 -35 0 -3 -52 -71 -116 -150 -64 -79 -131 -161 -148
-183 l-31 -39 -115 6 c-209 12 -472 79 -669 173 -204 96 -441 283 -562 443
l-49 64 0 99 c0 134 17 359 41 553 77 626 278 1311 554 1892 l58 123 111 74
c317 211 655 345 992 390 153 21 177 20 204 -9z"/>
<path d="M3291 5769 c-113 -22 -232 -105 -297 -206 -199 -309 -30 -734 316
-795 157 -27 336 53 433 194 146 211 122 502 -53 679 -66 66 -137 105 -229
125 -73 15 -105 16 -170 3z"/>
<path d="M4962 5769 c-79 -13 -156 -54 -226 -120 -105 -98 -159 -227 -160
-379 0 -253 170 -463 407 -502 238 -39 478 156 518 422 41 274 -139 540 -391
580 -73 11 -74 11 -148 -1z"/>
</g>
</svg>
