<?xml version="1.0" standalone="no"?>
<!DOCTYPE svg PUBLIC "-//W3C//DTD SVG 20010904//EN"
 "http://www.w3.org/TR/2001/REC-SVG-20010904/DTD/svg10.dtd">
<svg version="1.0" xmlns="http://www.w3.org/2000/svg"
 width="900.000000pt" height="905.000000pt" viewBox="0 0 900.000000 905.000000"
 preserveAspectRatio="xMidYMid meet">

<g transform="translate(0.000000,905.000000) scale(0.100000,-0.100000)"
fill="#000000" stroke="none">
<path d="M754 8981 c-179 -90 -277 -155 -390 -263 -119 -114 -200 -229 -291
-413 l-74 -150 4 -3375 c3 -2357 8 -3425 16 -3540 22 -327 45 -460 98 -570 31
-65 57 -96 192 -231 215 -216 355 -304 572 -365 136 -37 299 -41 2062 -43
l1517 -1 0 357 c0 496 10 2344 14 2649 l4 251 -417 6 c-410 6 -533 15 -559 41
-8 7 -17 31 -22 52 -43 185 -35 1102 10 1219 7 18 21 26 62 34 94 19 516 41
794 41 l111 0 7 253 c33 1212 38 1272 120 1482 100 256 207 428 365 586 160
159 325 261 575 354 131 48 236 70 431 89 320 31 984 47 1084 25 28 -6 65 -20
83 -32 92 -63 102 -130 95 -631 -5 -376 -15 -491 -44 -513 -32 -25 -128 -35
-408 -43 -306 -9 -401 -18 -529 -50 -155 -39 -248 -102 -303 -207 -71 -133
-83 -256 -83 -855 l0 -478 553 0 c508 0 744 -8 790 -26 51 -19 70 -168 48
-377 -42 -389 -121 -901 -144 -924 -30 -30 -282 -43 -884 -43 l-363 0 0 -1641
0 -1642 398 7 c218 3 685 8 1037 11 352 3 678 8 724 11 80 5 93 9 225 74 196
96 283 156 417 290 130 129 182 203 278 393 l66 132 3 3607 2 3606 -70 148
c-91 190 -163 298 -275 409 -109 110 -210 178 -412 279 l-153 76 -3598 0
-3598 0 -140 -69z"/>
</g>
</svg>
