<?xml version="1.0" standalone="no"?>
<!DOCTYPE svg PUBLIC "-//W3C//DTD SVG 20010904//EN"
 "http://www.w3.org/TR/2001/REC-SVG-20010904/DTD/svg10.dtd">
<svg version="1.0" xmlns="http://www.w3.org/2000/svg"
 width="250.000000pt" height="250.000000pt" viewBox="0 0 250.000000 250.000000"
 preserveAspectRatio="xMidYMid meet">

<g transform="translate(0.000000,250.000000) scale(0.100000,-0.100000)"
fill="#000000" stroke="none">
<path d="M1100 2489 c-170 -18 -365 -90 -525 -194 -114 -74 -284 -242 -354
-350 -123 -190 -193 -385 -213 -602 -43 -454 144 -888 500 -1158 88 -66 292
-175 329 -175 11 0 30 12 44 26 23 24 24 33 27 168 l3 142 -113 -1 c-103 0
-117 2 -163 27 -68 35 -97 69 -144 163 -43 87 -75 127 -133 170 -46 33 -48 50
-7 59 73 14 123 -20 242 -167 54 -67 86 -81 182 -80 88 0 133 13 141 40 14 45
35 84 64 116 31 36 31 36 8 41 -230 42 -339 89 -438 186 -75 73 -118 153 -145
267 -22 90 -30 263 -16 338 12 68 56 164 100 218 27 35 28 39 19 89 -14 71 -4
234 16 282 l16 39 55 -6 c62 -6 172 -53 255 -107 53 -35 56 -36 97 -24 116 35
357 40 534 13 l65 -10 115 60 c121 63 207 88 239 71 13 -7 24 -34 36 -87 14
-65 15 -92 7 -167 l-11 -90 33 -41 c43 -52 89 -146 106 -215 18 -72 16 -282
-4 -381 -48 -239 -181 -360 -447 -410 -63 -12 -120 -23 -127 -25 -6 -1 5 -20
26 -42 58 -60 65 -96 71 -369 l5 -242 28 -29 29 -30 70 29 c92 38 166 80 258
148 97 71 138 109 213 201 85 104 100 125 161 242 219 420 186 936 -86 1337
-71 104 -234 265 -339 333 -168 110 -355 178 -544 197 -121 12 -162 12 -285 0z"/>
</g>
</svg>
