<?xml version="1.0" standalone="no"?>
<!DOCTYPE svg PUBLIC "-//W3C//DTD SVG 20010904//EN"
 "http://www.w3.org/TR/2001/REC-SVG-20010904/DTD/svg10.dtd">
<svg version="1.0" xmlns="http://www.w3.org/2000/svg"
 width="980.000000pt" height="980.000000pt" viewBox="0 0 980.000000 980.000000"
 preserveAspectRatio="xMidYMid meet">

<g transform="translate(0.000000,980.000000) scale(0.100000,-0.100000)"
fill="#000000" stroke="none">
<path d="M1420 9785 c-363 -51 -667 -201 -929 -458 -248 -244 -408 -548 -468
-887 -17 -101 -18 -249 -18 -3540 0 -3291 1 -3439 18 -3540 58 -328 210 -625
445 -864 275 -280 608 -442 997 -486 72 -8 1046 -10 3500 -7 3795 3 3438 -4
3684 73 275 86 488 219 697 436 251 261 405 594 444 960 13 126 13 6730 0
6856 -28 263 -114 510 -253 720 -82 124 -110 158 -210 261 -188 192 -410 330
-657 410 -117 38 -166 49 -300 67 -151 20 -6804 19 -6950 -1z m4840 -2410
c144 -22 233 -50 366 -115 125 -61 246 -145 322 -223 l43 -44 62 13 c188 40
395 114 587 211 80 40 146 73 147 73 2 0 -8 -28 -21 -63 -88 -235 -256 -441
-492 -605 -16 -11 -10 -12 41 -7 135 13 456 102 609 169 l38 17 -41 -58 c-127
-181 -334 -401 -493 -523 l-85 -65 -6 -220 c-15 -559 -135 -1046 -381 -1550
-486 -992 -1362 -1680 -2414 -1895 -819 -166 -1647 -63 -2363 295 -118 59
-316 172 -323 184 -3 4 34 3 82 -2 112 -11 429 -2 557 17 284 42 571 134 815
262 109 58 346 210 369 238 12 14 8 16 -31 16 -24 0 -87 7 -138 16 -319 55
-605 232 -800 495 -59 80 -162 274 -176 332 l-6 28 43 -8 c112 -20 499 0 499
26 0 3 -37 16 -83 29 -105 29 -265 106 -364 174 -268 185 -479 519 -521 828
-19 137 -23 210 -12 210 6 0 32 -11 58 -24 113 -57 288 -105 441 -121 l64 -6
-74 59 c-148 117 -275 274 -357 437 -167 335 -167 760 0 1103 l40 83 37 -43
c313 -369 685 -664 1111 -882 391 -200 795 -322 1235 -371 72 -8 147 -15 169
-15 37 0 38 1 33 28 -4 15 -12 78 -19 140 -43 403 138 835 457 1089 284 226
631 321 975 268z"/>
</g>
</svg>
