<?xml version="1.0" standalone="no"?>
<!DOCTYPE svg PUBLIC "-//W3C//DTD SVG 20010904//EN"
 "http://www.w3.org/TR/2001/REC-SVG-20010904/DTD/svg10.dtd">
<svg version="1.0" xmlns="http://www.w3.org/2000/svg"
 width="900.000000pt" height="900.000000pt" viewBox="0 0 900.000000 900.000000"
 preserveAspectRatio="xMidYMid meet">

<g transform="translate(0.000000,900.000000) scale(0.100000,-0.100000)"
fill="#000000" stroke="none">
<path d="M3660 7549 c-124 -4 -497 -15 -830 -24 -1350 -35 -1663 -64 -1906
-179 -264 -125 -435 -317 -554 -623 -77 -197 -116 -379 -150 -713 -47 -466
-60 -774 -60 -1445 0 -764 11 -1006 70 -1610 32 -323 52 -426 118 -610 85
-238 155 -358 282 -479 122 -116 233 -181 413 -241 271 -90 389 -99 1842 -145
1370 -43 1831 -49 2340 -31 143 6 377 13 520 16 1114 25 1790 59 2039 101 224
37 413 134 584 298 133 128 210 261 291 503 71 211 105 420 141 848 31 384 40
648 40 1227 0 762 -13 1043 -75 1653 -32 319 -55 422 -147 655 -111 283 -284
475 -532 590 -239 112 -493 141 -1466 170 -195 6 -598 18 -895 27 -613 18
-1729 25 -2065 12z m630 -2096 c360 -188 875 -457 1144 -597 269 -141 493
-259 497 -263 4 -5 -288 -161 -649 -348 -361 -187 -785 -407 -942 -488 -157
-82 -385 -200 -507 -264 l-223 -115 0 1212 c0 977 2 1211 13 1208 7 -2 307
-157 667 -345z"/>
</g>
</svg>
